<?xml version="1.0" ?><svg style="enable-background:new 0 0 48 48;" version="1.1" viewBox="0 0 48 48" xml:space="preserve" xmlns="http://www.w3.org/2000/svg" xmlns:xlink="http://www.w3.org/1999/xlink"><g id="Icons"><path d="M30.67172,39.05259H17.32828c-1.08098,0-1.95729-0.87631-1.95729-1.95729v-0.92041h17.25802v0.92041   C32.62901,38.17627,31.7527,39.05259,30.67172,39.05259z" style="fill:#0097D3;"/><rect height="23.42005" style="fill:#F4F4F4;" width="17.25802" x="15.37099" y="12.75483"/><path d="M30.33773,8.94742H17.86268c-1.37612,0-2.49169,1.11557-2.49169,2.49169v1.31573h17.45842V11.4391   C32.82941,10.06298,31.71385,8.94742,30.33773,8.94742z" style="fill:#0097D3;"/><path d="   M30.51314,39.05259H17.48686c-1.16856,0-2.11587-0.94731-2.11587-2.11587V11.06329c0-1.16856,0.94731-2.11587,2.11587-2.11587   h13.02628c1.16856,0,2.11587,0.94731,2.11587,2.11587v25.87343C32.62901,38.10528,31.6817,39.05259,30.51314,39.05259z" style="fill:none;stroke:#303030;stroke-width:0.7;stroke-linecap:round;stroke-linejoin:round;stroke-miterlimit:10;"/><rect height="23.42005" style="fill:none;stroke:#303030;stroke-width:0.7;stroke-linecap:round;stroke-linejoin:round;stroke-miterlimit:10;" width="17.25802" x="15.37099" y="12.75483"/><circle cx="24" cy="37.56833" r="0.64537" style="fill:#FFFFFF;"/><ellipse cx="26.88283" cy="10.82123" rx="0.36534" ry="0.32871" style="fill:#FFFFFF;"/><line style="fill:none;stroke:#FFFFFF;stroke-width:0.7;stroke-linecap:round;stroke-linejoin:round;stroke-miterlimit:10;" x1="20.75183" x2="24.47485" y1="10.82123" y2="10.82123"/><line style="fill:none;stroke:#303030;stroke-width:0.7;stroke-linecap:round;stroke-linejoin:round;stroke-miterlimit:10;" x1="20.48108" x2="17.61101" y1="14.20828" y2="16.79057"/><line style="fill:none;stroke:#303030;stroke-width:0.7;stroke-linecap:round;stroke-linejoin:round;stroke-miterlimit:10;" x1="21.01124" x2="19.22268" y1="15.49943" y2="17.10864"/><path d="M24.31561,24.2066c0-0.13692-0.00232-0.27389,0.00104-0.41072   c0.00153-0.06236-0.01846-0.08579-0.08315-0.08533c-0.33652,0.00241-0.67307,0.00226-1.00959,0.00006   c-0.0617-0.0004-0.08472,0.01638-0.08463,0.0822c0.00173,1.23986,0.0017,2.47973,0.00005,3.71959   c-0.00009,0.0644,0.02048,0.08374,0.0835,0.08333c0.35202-0.00229,0.70407-0.00248,1.05609,0.00015   c0.06405,0.00048,0.08202-0.01929,0.08177-0.08306c-0.00229-0.58893-0.00304-1.17787-0.00015-1.7668   c0.00072-0.14543,0.00965-0.29158,0.02687-0.43596c0.01881-0.15763,0.06929-0.30667,0.18005-0.42689   c0.1422-0.15435,0.32693-0.18914,0.52635-0.18541c0.27836,0.00522,0.45181,0.13489,0.53134,0.40134   c0.05126,0.17172,0.05536,0.34827,0.05545,0.5252c0.00033,0.62658,0.00006,1.25315,0.00024,1.87972   c0.00003,0.08754,0.00285,0.09043,0.08891,0.0905c0.34318,0.00027,0.68635,0.00017,1.02953,0.0001   c0.10697-0.00002,0.10753-0.00018,0.1071-0.10563c-0.00311-0.75916-0.00513-1.51833-0.01057-2.27747   c-0.00167-0.23257-0.03288-0.46251-0.09657-0.6867c-0.0975-0.34323-0.28118-0.62317-0.61856-0.76937   c-0.35297-0.15296-0.72263-0.18063-1.09635-0.08895C24.76179,23.74562,24.50683,23.92665,24.31561,24.2066z M22.40623,25.65672   c0-0.61985-0.0011-1.23971,0.00157-1.85955c0.00029-0.06728-0.01767-0.08741-0.08491-0.08686   c-0.34975,0.00287-0.69955,0.00268-1.0493,0.00011c-0.06554-0.00048-0.08763,0.01787-0.08752,0.08621   c0.00189,1.23749,0.00188,2.47498,0.00002,3.71247c-0.0001,0.06771,0.02073,0.08726,0.08698,0.08676   c0.34975-0.00266,0.69955-0.0027,1.0493,0.00003c0.06632,0.00052,0.0858-0.0181,0.08549-0.08628   C22.40508,26.89201,22.40623,26.27436,22.40623,25.65672z M21.09357,22.50449c0.00007,0.38651,0.3166,0.71015,0.70368,0.70628   c0.39941-0.004,0.70932-0.30484,0.7086-0.70706c-0.00073-0.40923-0.31625-0.70732-0.70935-0.70504   C21.3773,21.8011,21.09431,22.13662,21.09357,22.50449z" style="fill:#0097D3;"/><path d="M24.31561,24.2066c0.19122-0.27995,0.44618-0.46098,0.76872-0.5401   c0.37372-0.09168,0.74338-0.06401,1.09635,0.08895c0.33738,0.1462,0.52106,0.42614,0.61856,0.76937   c0.06369,0.22419,0.0949,0.45413,0.09657,0.6867c0.00544,0.75914,0.00746,1.51831,0.01057,2.27747   c0.00043,0.10545-0.00013,0.10561-0.1071,0.10563c-0.34318,0.00007-0.68635,0.00017-1.02953-0.0001   c-0.08607-0.00007-0.08889-0.00296-0.08891-0.0905c-0.00018-0.62657,0.00009-1.25315-0.00024-1.87972   c-0.00009-0.17693-0.00419-0.35348-0.05545-0.5252c-0.07953-0.26645-0.25299-0.39613-0.53134-0.40134   c-0.19942-0.00374-0.38416,0.03106-0.52635,0.18541c-0.11076,0.12023-0.16124,0.26926-0.18005,0.42689   c-0.01723,0.14438-0.02616,0.29053-0.02687,0.43596c-0.00289,0.58892-0.00214,1.17787,0.00015,1.7668   c0.00025,0.06376-0.01772,0.08354-0.08177,0.08306c-0.35201-0.00263-0.70407-0.00244-1.05609-0.00015   c-0.06301,0.00041-0.08358-0.01893-0.0835-0.08333c0.00165-1.23986,0.00168-2.47973-0.00005-3.71959   c-0.00009-0.06582,0.02293-0.0826,0.08463-0.0822c0.33652,0.0022,0.67307,0.00235,1.00959-0.00006   c0.06469-0.00046,0.08468,0.02296,0.08315,0.08533C24.31329,23.93271,24.31561,24.06968,24.31561,24.2066z" style="fill:#0097D3;"/><path d="M22.40623,25.65672c0,0.61764-0.00115,1.23528,0.00163,1.85291   c0.00031,0.06818-0.01917,0.08679-0.08549,0.08628c-0.34975-0.00273-0.69955-0.00269-1.0493-0.00003   c-0.06625,0.0005-0.08708-0.01905-0.08698-0.08676c0.00186-1.23749,0.00187-2.47498-0.00002-3.71247   c-0.0001-0.06834,0.02198-0.08669,0.08752-0.08621c0.34976,0.00257,0.69955,0.00276,1.0493-0.00011   c0.06724-0.00055,0.0852,0.01958,0.08491,0.08686C22.40514,24.41701,22.40623,25.03687,22.40623,25.65672z" style="fill:#0097D3;"/><path d="M21.09357,22.50449c0.00074-0.36787,0.28373-0.70339,0.70293-0.70582   c0.3931-0.00228,0.70862,0.29581,0.70935,0.70504c0.00072,0.40222-0.30919,0.70305-0.7086,0.70706   C21.41017,23.21464,21.09364,22.891,21.09357,22.50449z" style="fill:#0097D3;"/></g></svg>